<?xml version="1.0" encoding="UTF-8" standalone="no"?>
<!DOCTYPE svg PUBLIC "-//W3C//DTD SVG 1.1//EN"
 "http://www.w3.org/Graphics/SVG/1.1/DTD/svg11.dtd">
<!-- Generated by graphviz version 2.40.1 (20161225.0304)
 -->
<!-- Title: dependency&#45;cruiser output Pages: 1 -->
<svg width="528pt" height="132pt"
 viewBox="0.00 0.00 528.13 132.00" xmlns="http://www.w3.org/2000/svg" xmlns:xlink="http://www.w3.org/1999/xlink">
<g id="graph0" class="graph" transform="scale(1 1) rotate(0) translate(4 128)">
<title>dependency&#45;cruiser output</title>
<polygon fill="#ffffff" stroke="transparent" points="-4,4 -4,-128 524.1294,-128 524.1294,4 -4,4"/>
<g id="clust1" class="cluster">
<title>cluster_/reactive&#45;react</title>
<path fill="none" stroke="#000000" stroke-width="2" d="M20,-8C20,-8 500.1294,-8 500.1294,-8 506.1294,-8 512.1294,-14 512.1294,-20 512.1294,-20 512.1294,-104 512.1294,-104 512.1294,-110 506.1294,-116 500.1294,-116 500.1294,-116 20,-116 20,-116 14,-116 8,-110 8,-104 8,-104 8,-20 8,-20 8,-14 14,-8 20,-8"/>
<text text-anchor="middle" x="260.0647" y="-104.8" font-family="Helvetica,sans-Serif" font-weight="bold" font-size="9.00" fill="#000000">reactive&#45;react</text>
</g>
<!-- reactive&#45;react/component.js -->
<g id="node1" class="node">
<title>reactive&#45;react/component.js</title>
<g id="a_node1"><a xlink:href="reactive-react/component.js" xlink:title="component.js">
<path fill="#ffffcc" stroke="#000000" d="M408.2292,-33.5C408.2292,-33.5 350.4998,-33.5 350.4998,-33.5 347.6665,-33.5 344.8331,-30.6667 344.8331,-27.8333 344.8331,-27.8333 344.8331,-22.1667 344.8331,-22.1667 344.8331,-19.3333 347.6665,-16.5 350.4998,-16.5 350.4998,-16.5 408.2292,-16.5 408.2292,-16.5 411.0625,-16.5 413.8959,-19.3333 413.8959,-22.1667 413.8959,-22.1667 413.8959,-27.8333 413.8959,-27.8333 413.8959,-30.6667 411.0625,-33.5 408.2292,-33.5"/>
<text text-anchor="middle" x="379.3645" y="-22.3" font-family="Helvetica,sans-Serif" font-size="9.00" fill="#000000">component.js</text>
</a>
</g>
</g>
<!-- reactive&#45;react/swyxjs.js -->
<g id="node6" class="node">
<title>reactive&#45;react/swyxjs.js</title>
<g id="a_node6"><a xlink:href="reactive-react/swyxjs.js" xlink:title="swyxjs.js">
<path fill="#ffffcc" stroke="#000000" d="M498.4627,-84.5C498.4627,-84.5 455.7961,-84.5 455.7961,-84.5 452.9627,-84.5 450.1294,-81.6667 450.1294,-78.8333 450.1294,-78.8333 450.1294,-73.1667 450.1294,-73.1667 450.1294,-70.3333 452.9627,-67.5 455.7961,-67.5 455.7961,-67.5 498.4627,-67.5 498.4627,-67.5 501.2961,-67.5 504.1294,-70.3333 504.1294,-73.1667 504.1294,-73.1667 504.1294,-78.8333 504.1294,-78.8333 504.1294,-81.6667 501.2961,-84.5 498.4627,-84.5"/>
<text text-anchor="middle" x="477.1294" y="-73.3" font-family="Helvetica,sans-Serif" font-size="9.00" fill="#000000">swyxjs.js</text>
</a>
</g>
</g>
<!-- reactive&#45;react/component.js&#45;&gt;reactive&#45;react/swyxjs.js -->
<g id="edge1" class="edge">
<title>reactive&#45;react/component.js&#45;&gt;reactive&#45;react/swyxjs.js</title>
<path fill="none" stroke="#000000" d="M402.0202,-33.5572C406.0982,-35.2571 410.2756,-37.1053 414.1294,-39 428.1412,-45.8887 443.244,-54.7072 455.1491,-62.007"/>
<polygon fill="#000000" stroke="#000000" points="453.5895,-65.1588 463.9292,-67.4699 457.2875,-59.2153 453.5895,-65.1588"/>
</g>
<!-- reactive&#45;react/element.js -->
<g id="node2" class="node">
<title>reactive&#45;react/element.js</title>
<g id="a_node2"><a xlink:href="reactive-react/element.js" xlink:title="element.js">
<path fill="#ffffcc" stroke="#000000" d="M402.2164,-62.5C402.2164,-62.5 356.5126,-62.5 356.5126,-62.5 353.6793,-62.5 350.8459,-59.6667 350.8459,-56.8333 350.8459,-56.8333 350.8459,-51.1667 350.8459,-51.1667 350.8459,-48.3333 353.6793,-45.5 356.5126,-45.5 356.5126,-45.5 402.2164,-45.5 402.2164,-45.5 405.0497,-45.5 407.8831,-48.3333 407.8831,-51.1667 407.8831,-51.1667 407.8831,-56.8333 407.8831,-56.8333 407.8831,-59.6667 405.0497,-62.5 402.2164,-62.5"/>
<text text-anchor="middle" x="379.3645" y="-51.3" font-family="Helvetica,sans-Serif" font-size="9.00" fill="#000000">element.js</text>
</a>
</g>
</g>
<!-- reactive&#45;react/index.js -->
<g id="node3" class="node">
<title>reactive&#45;react/index.js</title>
<g id="a_node3"><a xlink:href="reactive-react/index.js" xlink:title="index.js">
<path fill="#ffffcc" stroke="#000000" d="M84.1063,-64.5C84.1063,-64.5 41.4396,-64.5 41.4396,-64.5 38.6063,-64.5 35.7729,-61.6667 35.7729,-58.8333 35.7729,-58.8333 35.7729,-53.1667 35.7729,-53.1667 35.7729,-50.3333 38.6063,-47.5 41.4396,-47.5 41.4396,-47.5 84.1063,-47.5 84.1063,-47.5 86.9396,-47.5 89.7729,-50.3333 89.7729,-53.1667 89.7729,-53.1667 89.7729,-58.8333 89.7729,-58.8333 89.7729,-61.6667 86.9396,-64.5 84.1063,-64.5"/>
<text text-anchor="middle" x="62.7729" y="-53.3" font-family="Helvetica,sans-Serif" font-size="9.00" fill="#000000">index.js</text>
</a>
</g>
</g>
<!-- reactive&#45;react/index.js&#45;&gt;reactive&#45;react/component.js -->
<g id="edge2" class="edge">
<title>reactive&#45;react/index.js&#45;&gt;reactive&#45;react/component.js</title>
<path fill="none" stroke="#000000" d="M89.9771,-52.9417C106.1212,-51.1518 126.9941,-48.8813 145.5459,-47 211.1657,-40.3458 287.2179,-33.3167 334.3166,-29.0434"/>
<polygon fill="#000000" stroke="#000000" points="334.8452,-32.51 344.4889,-28.1225 334.214,-25.5385 334.8452,-32.51"/>
</g>
<!-- reactive&#45;react/index.js&#45;&gt;reactive&#45;react/element.js -->
<g id="edge3" class="edge">
<title>reactive&#45;react/index.js&#45;&gt;reactive&#45;react/element.js</title>
<path fill="none" stroke="#000000" d="M90.0575,-54.3967C135.422,-51.9415 229.2261,-47.7585 308.5996,-50 319.0241,-50.2944 330.3021,-50.8322 340.7259,-51.4201"/>
<polygon fill="#000000" stroke="#000000" points="340.6122,-54.9194 350.8018,-52.0175 341.0265,-47.9317 340.6122,-54.9194"/>
</g>
<!-- reactive&#45;react/reconciler.js -->
<g id="node4" class="node">
<title>reactive&#45;react/reconciler.js</title>
<g id="a_node4"><a xlink:href="reactive-react/reconciler.js" xlink:title="reconciler.js">
<path fill="#ffffcc" stroke="#000000" d="M302.696,-73.5C302.696,-73.5 250.9808,-73.5 250.9808,-73.5 248.1475,-73.5 245.3141,-70.6667 245.3141,-67.8333 245.3141,-67.8333 245.3141,-62.1667 245.3141,-62.1667 245.3141,-59.3333 248.1475,-56.5 250.9808,-56.5 250.9808,-56.5 302.696,-56.5 302.696,-56.5 305.5293,-56.5 308.3626,-59.3333 308.3626,-62.1667 308.3626,-62.1667 308.3626,-67.8333 308.3626,-67.8333 308.3626,-70.6667 305.5293,-73.5 302.696,-73.5"/>
<text text-anchor="middle" x="276.8384" y="-62.3" font-family="Helvetica,sans-Serif" font-size="9.00" fill="#000000">reconciler.js</text>
</a>
</g>
</g>
<!-- reactive&#45;react/index.js&#45;&gt;reactive&#45;react/reconciler.js -->
<g id="edge4" class="edge">
<title>reactive&#45;react/index.js&#45;&gt;reactive&#45;react/reconciler.js</title>
<path fill="none" stroke="#000000" d="M89.8845,-57.1399C126.4694,-58.678 191.9976,-61.433 234.9454,-63.2387"/>
<polygon fill="#000000" stroke="#000000" points="234.9412,-66.7415 245.0795,-63.6648 235.2353,-59.7477 234.9412,-66.7415"/>
</g>
<!-- reactive&#45;react/scheduler.js -->
<g id="node5" class="node">
<title>reactive&#45;react/scheduler.js</title>
<g id="a_node5"><a xlink:href="reactive-react/scheduler.js" xlink:title="scheduler.js">
<path fill="#ffffcc" stroke="#000000" d="M203.1778,-87.5C203.1778,-87.5 151.4452,-87.5 151.4452,-87.5 148.6119,-87.5 145.7786,-84.6667 145.7786,-81.8333 145.7786,-81.8333 145.7786,-76.1667 145.7786,-76.1667 145.7786,-73.3333 148.6119,-70.5 151.4452,-70.5 151.4452,-70.5 203.1778,-70.5 203.1778,-70.5 206.0112,-70.5 208.8445,-73.3333 208.8445,-76.1667 208.8445,-76.1667 208.8445,-81.8333 208.8445,-81.8333 208.8445,-84.6667 206.0112,-87.5 203.1778,-87.5"/>
<text text-anchor="middle" x="177.3115" y="-76.3" font-family="Helvetica,sans-Serif" font-size="9.00" fill="#000000">scheduler.js</text>
</a>
</g>
</g>
<!-- reactive&#45;react/index.js&#45;&gt;reactive&#45;react/scheduler.js -->
<g id="edge5" class="edge">
<title>reactive&#45;react/index.js&#45;&gt;reactive&#45;react/scheduler.js</title>
<path fill="none" stroke="#000000" d="M89.917,-61.4507C103.4619,-64.1706 120.1499,-67.5216 135.3009,-70.564"/>
<polygon fill="#000000" stroke="#000000" points="134.9936,-74.0721 145.487,-72.6094 136.3718,-67.2091 134.9936,-74.0721"/>
</g>
<!-- reactive&#45;react/reconciler.js&#45;&gt;reactive&#45;react/component.js -->
<g id="edge6" class="edge">
<title>reactive&#45;react/reconciler.js&#45;&gt;reactive&#45;react/component.js</title>
<path fill="none" stroke="#000000" d="M298.8328,-56.419C313.1583,-50.83 332.0696,-43.4518 347.9662,-37.2499"/>
<polygon fill="#000000" stroke="#000000" points="349.3625,-40.4621 357.4065,-33.5668 346.8182,-33.9409 349.3625,-40.4621"/>
</g>
<!-- reactive&#45;react/reconciler.js&#45;&gt;reactive&#45;react/element.js -->
<g id="edge7" class="edge">
<title>reactive&#45;react/reconciler.js&#45;&gt;reactive&#45;react/element.js</title>
<path fill="none" stroke="#000000" d="M308.4362,-61.6099C318.6913,-60.5096 330.184,-59.2766 340.8833,-58.1286"/>
<polygon fill="#000000" stroke="#000000" points="341.2623,-61.6082 350.8319,-57.0613 340.5155,-54.6481 341.2623,-61.6082"/>
</g>
<!-- reactive&#45;react/reconciler.js&#45;&gt;reactive&#45;react/swyxjs.js -->
<g id="edge8" class="edge">
<title>reactive&#45;react/reconciler.js&#45;&gt;reactive&#45;react/swyxjs.js</title>
<path fill="none" stroke="#000000" d="M308.551,-66.9127C319.92,-67.5877 332.8334,-68.342 344.5996,-69 376.7892,-70.8002 413.3841,-72.7237 439.9517,-74.098"/>
<polygon fill="#000000" stroke="#000000" points="439.8008,-77.5948 449.9679,-74.6147 440.1615,-70.6041 439.8008,-77.5948"/>
</g>
<!-- reactive&#45;react/scheduler.js&#45;&gt;reactive&#45;react/reconciler.js -->
<g id="edge9" class="edge">
<title>reactive&#45;react/scheduler.js&#45;&gt;reactive&#45;react/reconciler.js</title>
<path fill="none" stroke="#000000" d="M209.0761,-74.5318C217.3357,-73.37 226.3598,-72.1006 235.0507,-70.8781"/>
<polygon fill="#000000" stroke="#000000" points="235.6193,-74.3327 245.0342,-69.4737 234.6442,-67.4009 235.6193,-74.3327"/>
</g>
<!-- reactive&#45;react/scheduler.js&#45;&gt;reactive&#45;react/swyxjs.js -->
<g id="edge10" class="edge">
<title>reactive&#45;react/scheduler.js&#45;&gt;reactive&#45;react/swyxjs.js</title>
<path fill="none" stroke="#000000" d="M209.0275,-79.5647C220.3973,-79.7416 233.3113,-79.9132 245.0771,-80 273.3086,-80.2083 280.3694,-80.335 308.5996,-80 353.6234,-79.4658 405.3989,-78.129 439.5496,-77.1472"/>
<polygon fill="#000000" stroke="#000000" points="440.0938,-80.6329 449.9873,-76.8424 439.8894,-73.6359 440.0938,-80.6329"/>
</g>
<!-- reactive&#45;react/updateProperties.js -->
<g id="node7" class="node">
<title>reactive&#45;react/updateProperties.js</title>
<g id="a_node7"><a xlink:href="reactive-react/updateProperties.js" xlink:title="updateProperties.js">
<path fill="#ffffcc" stroke="#000000" d="M103.6533,-34.5C103.6533,-34.5 21.8926,-34.5 21.8926,-34.5 19.0593,-34.5 16.226,-31.6667 16.226,-28.8333 16.226,-28.8333 16.226,-23.1667 16.226,-23.1667 16.226,-20.3333 19.0593,-17.5 21.8926,-17.5 21.8926,-17.5 103.6533,-17.5 103.6533,-17.5 106.4866,-17.5 109.3199,-20.3333 109.3199,-23.1667 109.3199,-23.1667 109.3199,-28.8333 109.3199,-28.8333 109.3199,-31.6667 106.4866,-34.5 103.6533,-34.5"/>
<text text-anchor="middle" x="62.7729" y="-23.3" font-family="Helvetica,sans-Serif" font-size="9.00" fill="#000000">updateProperties.js</text>
</a>
</g>
</g>
</g>
</svg>
